HIERARCHY
ROOT Hips
{
  OFFSET 3.244 21.192 -241.166
  CHANNELS 6 Xposition Yposition Zposition Zrotation Xrotation Yrotation
  JOINT LeftUpLeg
  {
    OFFSET 5.644 -5.335 1.234
    CHANNELS 6 Xposition Yposition Zposition Zrotation Xrotation Yrotation
    JOINT LeftLeg
    {
      OFFSET -0.000 -47.102 0.000
      CHANNELS 6 Xposition Yposition Zposition Zrotation Xrotation Yrotation
      JOINT LeftFoot
      {
        OFFSET 0.000 -39.569 -0.000
        CHANNELS 6 Xposition Yposition Zposition Zrotation Xrotation Yrotation
        End Site
        {
          OFFSET 0.000 -7.229 4.174
        }
      }
    }
  }
  JOINT RightUpLeg
  {
    OFFSET -5.976 -5.378 1.701
    CHANNELS 6 Xposition Yposition Zposition Zrotation Xrotation Yrotation
    JOINT RightLeg
    {
      OFFSET 0.000 -47.094 0.000
      CHANNELS 6 Xposition Yposition Zposition Zrotation Xrotation Yrotation
      JOINT RightFoot
      {
        OFFSET 0.000 -39.413 -0.000
        CHANNELS 6 Xposition Yposition Zposition Zrotation Xrotation Yrotation
        End Site
        {
          OFFSET 0.000 -7.779 4.491
        }
      }
    }
  }
  JOINT Spine
  {
    OFFSET 0.000 6.700 -6.700
    CHANNELS 6 Xposition Yposition Zposition Zrotation Xrotation Yrotation
    JOINT LeftShoulder
    {
      OFFSET -0.000 38.806 0.000
      CHANNELS 6 Xposition Yposition Zposition Zrotation Xrotation Yrotation
      JOINT LeftArm
      {
        OFFSET 12.828 0.000 -0.000
        CHANNELS 6 Xposition Yposition Zposition Zrotation Xrotation Yrotation
        JOINT LeftForeArm
        {
          OFFSET 23.339 0.000 0.000
          CHANNELS 6 Xposition Yposition Zposition Zrotation Xrotation Yrotation
          JOINT LeftHand
          {
            OFFSET 25.317 0.000 -0.000
            CHANNELS 6 Xposition Yposition Zposition Zrotation Xrotation Yrotation
            JOINT LeftHandThumb1
            {
            OFFSET 4.970 -0.620 3.390
            CHANNELS 6 Xposition Yposition Zposition Zrotation Xrotation Yrotation
              JOINT LeftHandThumb2
              {
              OFFSET 2.150 -0.000 0.000
              CHANNELS 6 Xposition Yposition Zposition Zrotation Xrotation Yrotation
                JOINT LeftHandThumb3
                {
                OFFSET 2.200 -0.000 0.000
                CHANNELS 6 Xposition Yposition Zposition Zrotation Xrotation Yrotation
                  JOINT LeftHandThumb4
                  {
                  OFFSET 1.700 -0.000 0.000
                  CHANNELS 6 Xposition Yposition Zposition Zrotation Xrotation Yrotation
                  }
                }
              }
            }
            JOINT LeftHandIndex1
            {
            OFFSET 8.730 0.680 2.070
            CHANNELS 6 Xposition Yposition Zposition Zrotation Xrotation Yrotation
              JOINT LeftHandIndex2
              {
              OFFSET 2.670 -0.000 0.000
              CHANNELS 6 Xposition Yposition Zposition Zrotation Xrotation Yrotation
                JOINT LeftHandIndex3
                {
                OFFSET 2.130 -0.000 0.000
                CHANNELS 6 Xposition Yposition Zposition Zrotation Xrotation Yrotation
                  JOINT LeftHandIndex4
                  {
                  OFFSET 1.800 -0.000 0.000
                  CHANNELS 6 Xposition Yposition Zposition Zrotation Xrotation Yrotation
                  }
                }
              }
            }
            JOINT LeftHandMiddle1
            {
            OFFSET 9.220 0.670 0.550
            CHANNELS 6 Xposition Yposition Zposition Zrotation Xrotation Yrotation
              JOINT LeftHandMiddle2
              {
              OFFSET 2.660 -0.000 0.000
              CHANNELS 6 Xposition Yposition Zposition Zrotation Xrotation Yrotation
                JOINT LeftHandMiddle3
                {
                OFFSET 2.280 -0.000 0.000
                CHANNELS 6 Xposition Yposition Zposition Zrotation Xrotation Yrotation
                  JOINT LeftHandMiddle4
                  {
                  OFFSET 1.500 -0.000 0.000
                  CHANNELS 6 Xposition Yposition Zposition Zrotation Xrotation Yrotation
                  }
                }
              }
            }
            JOINT LeftHandRing1
            {
            OFFSET 9.250 0.670 -1.130
            CHANNELS 6 Xposition Yposition Zposition Zrotation Xrotation Yrotation
              JOINT LeftHandRing2
              {
              OFFSET 2.470 -0.000 0.000
              CHANNELS 6 Xposition Yposition Zposition Zrotation Xrotation Yrotation
                JOINT LeftHandRing3
                {
                OFFSET 2.210 -0.000 0.000
                CHANNELS 6 Xposition Yposition Zposition Zrotation Xrotation Yrotation
                  JOINT LeftHandRing4
                  {
                  OFFSET 1.800 -0.000 0.000
                  CHANNELS 6 Xposition Yposition Zposition Zrotation Xrotation Yrotation
                  }
                }
              }
            }
            JOINT LeftHandPinky1
            {
            OFFSET 9.350 0.660 -2.720
            CHANNELS 6 Xposition Yposition Zposition Zrotation Xrotation Yrotation
              JOINT LeftHandPinky2
              {
              OFFSET 1.630 -0.000 0.000
              CHANNELS 6 Xposition Yposition Zposition Zrotation Xrotation Yrotation
                JOINT LeftHandPinky3
                {
                OFFSET 1.710 -0.000 0.000
                CHANNELS 6 Xposition Yposition Zposition Zrotation Xrotation Yrotation
                  JOINT LeftHandPinky4
                  {
                  OFFSET 1.800 -0.000 0.000
                  CHANNELS 6 Xposition Yposition Zposition Zrotation Xrotation Yrotation
                  }
                }
              }
            }
          }
        }
      }
    }
    JOINT RightShoulder
    {
      OFFSET -0.000 38.806 0.000
      CHANNELS 6 Xposition Yposition Zposition Zrotation Xrotation Yrotation
      JOINT RightArm
      {
        OFFSET -18.025 0.000 -0.000
        CHANNELS 6 Xposition Yposition Zposition Zrotation Xrotation Yrotation
        JOINT RightForeArm
        {
          OFFSET -25.202 0.000 0.000
          CHANNELS 6 Xposition Yposition Zposition Zrotation Xrotation Yrotation
          JOINT RightHand
          {
            OFFSET -25.151 0.000 -0.000
            CHANNELS 6 Xposition Yposition Zposition Zrotation Xrotation Yrotation
            JOINT RightHandThumb1
            {
            OFFSET -4.970 -0.620 3.390
            CHANNELS 6 Xposition Yposition Zposition Zrotation Xrotation Yrotation
              JOINT RightHandThumb2
              {
              OFFSET -2.150 0.000 0.000
              CHANNELS 6 Xposition Yposition Zposition Zrotation Xrotation Yrotation
                JOINT RightHandThumb3
                {
                OFFSET -2.200 0.000 0.000
                CHANNELS 6 Xposition Yposition Zposition Zrotation Xrotation Yrotation
                  JOINT RightHandThumb4
                  {
                  OFFSET -1.700 0.000 0.000
                  CHANNELS 6 Xposition Yposition Zposition Zrotation Xrotation Yrotation
                  }
                }
              }
            }
            JOINT RightHandIndex1
            {
            OFFSET -8.730 0.680 2.070
            CHANNELS 6 Xposition Yposition Zposition Zrotation Xrotation Yrotation
              JOINT RightHandIndex2
              {
              OFFSET -2.670 0.000 0.000
              CHANNELS 6 Xposition Yposition Zposition Zrotation Xrotation Yrotation
                JOINT RightHandIndex3
                {
                OFFSET -2.130 0.000 0.000
                CHANNELS 6 Xposition Yposition Zposition Zrotation Xrotation Yrotation
                  JOINT RightHandIndex4
                  {
                  OFFSET -1.800 0.000 0.000
                  CHANNELS 6 Xposition Yposition Zposition Zrotation Xrotation Yrotation
                  }
                }
              }
            }
            JOINT RightHandMiddle1
            {
            OFFSET -9.220 0.670 0.550
            CHANNELS 6 Xposition Yposition Zposition Zrotation Xrotation Yrotation
              JOINT RightHandMiddle2
              {
              OFFSET -2.660 0.000 0.000
              CHANNELS 6 Xposition Yposition Zposition Zrotation Xrotation Yrotation
                JOINT RightHandMiddle3
                {
                OFFSET -2.280 0.000 0.000
                CHANNELS 6 Xposition Yposition Zposition Zrotation Xrotation Yrotation
                  JOINT RightHandMiddle4
                  {
                  OFFSET -1.500 0.000 0.000
                  CHANNELS 6 Xposition Yposition Zposition Zrotation Xrotation Yrotation
                  }
                }
              }
            }
            JOINT RightHandRing1
            {
            OFFSET -9.250 0.670 -1.130
            CHANNELS 6 Xposition Yposition Zposition Zrotation Xrotation Yrotation
              JOINT RightHandRing2
              {
              OFFSET -2.470 0.000 0.000
              CHANNELS 6 Xposition Yposition Zposition Zrotation Xrotation Yrotation
                JOINT RightHandRing3
                {
                OFFSET -2.210 0.000 0.000
                CHANNELS 6 Xposition Yposition Zposition Zrotation Xrotation Yrotation
                  JOINT RightHandRing4
                  {
                  OFFSET -1.800 0.000 0.000
                  CHANNELS 6 Xposition Yposition Zposition Zrotation Xrotation Yrotation
                  }
                }
              }
            }
            JOINT RightHandPinky1
            {
            OFFSET -9.350 0.660 -2.720
            CHANNELS 6 Xposition Yposition Zposition Zrotation Xrotation Yrotation
              JOINT RightHandPinky2
              {
              OFFSET -1.630 0.000 0.000
              CHANNELS 6 Xposition Yposition Zposition Zrotation Xrotation Yrotation
                JOINT RightHandPinky3
                {
                OFFSET -1.710 0.000 0.000
                CHANNELS 6 Xposition Yposition Zposition Zrotation Xrotation Yrotation
                  JOINT RightHandPinky4
                  {
                  OFFSET -1.800 0.000 0.000
                  CHANNELS 6 Xposition Yposition Zposition Zrotation Xrotation Yrotation
                  }
                }
              }
            }
          }
        }
      }
    }
    JOINT Neck
    {
      OFFSET -0.000 38.806 0.000
      CHANNELS 6 Xposition Yposition Zposition Zrotation Xrotation Yrotation
      JOINT Head
      {
        OFFSET -0.000 20.091 -0.000
        CHANNELS 6 Xposition Yposition Zposition Zrotation Xrotation Yrotation
        End Site
        {
          OFFSET -0.000 0.080 -0.000
        }
      }
    }
  }
}
MOTION
Frames:	6
Frame Time:	0.0333333
-10.0635 22.8312 -226.921 -1.70367 0.387723 8.83945 5.52067 -5.42988 1.66295 18.5812 -0.133743 -2.36633 2.98023e-06 -48.1138 0 -0.958957 2.97118 0.0497099 -2.98023e-06 -40.7858 -4.76837e-05 1.86227 -23.7742 2.06223 -5.92555 -5.42543 1.20611 -15.2137 -0.469538 -2.49527 3.35276e-06 -46.1186 0 6.72226 8.14624 -0.956854 1.49012e-06 -41.9202 0 -1.05001 -7.86653 -0.798291 2.98023e-06 6.6358 -6.63581 -2.40769 -6.18052 2.82382 -8.9407e-06 38.8051 2.38419e-05 -31.5519 8.53774e-06 -10.6725 14.2536 1.19209e-05 -7.15256e-05 23.4475 10.7732 -23.1586 23.3221 1.78814e-05 4.76837e-05 6.61207e-06 3.30838e-06 -64.2458 22.5773 3.57628e-05 -2.98023e-06 -11.7185 0.222982 -42.4996 0.0062 0.0497 0.0339 -45 0 0 0 0.0215 0 0 -45 0 0 0.022 0 0 -45 0 0 0.017 0 0 0 0 -0.0068 0.0873 0.0207 -45 0 0 0 0.0267 0 -80 0 0 0 0.0213 0 -90 0 0 0 0.018 0 0 0 0 -0.0067 0.0922 0.0055 -45 0 0 0 0.0266 0 -80 0 0 0 0.0228 0 -90 0 0 0 0.015 0 0 0 0 -0.0067 0.0925 -0.0113 -45 0 0 0 0.0247 0 -80 0 0 0 0.0221 0 -90 0 0 0 0.018 0 0 0 0 -0.0066 0.0935 -0.0272 -45 0 0 0 0.0163 0 -80 0 0 0 0.0171 0 -90 0 0 0 0.018 0 0 0 0 -8.9407e-06 38.8051 2.38419e-05 36.7731 -2.98821e-06 8.89746 -17.0669 -1.19209e-05 7.15256e-05 -52.9631 -27.5213 -29.7322 -26.3228 2.38419e-05 -4.76837e-05 -1.68079e-05 3.41509e-06 67.0295 -25.0418 1.19209e-05 2.38419e-05 -21.658 -0.129899 13.6663 -0.0062 0.0497 0.0339 42.6507 0 0 0 0.0215 0 0 -42.6507 0 0 0.022 0 0 -42.6507 0 0 0.017 0 0 0 0 0.0068 0.0873 0.0207 42.6507 0 0 0 0.0267 0 75.8234 0 0 0 0.0213 0 85.3013 0 0 0 0.018 0 0 0 0 0.0067 0.0922 0.0055 42.6507 0 0 0 0.0266 0 75.8234 0 0 0 0.0228 0 85.3013 0 0 0 0.015 0 0 0 0 0.0067 0.0925 -0.0113 42.6507 0 0 0 0.0247 0 75.8234 0 0 0 0.0221 0 85.3013 0 0 0 0.018 0 0 0 0 0.0066 0.0935 -0.0272 42.6507 0 0 0 0.0163 0 75.8234 0 0 0 0.0171 0 85.3013 0 0 0 0.018 0 0 0 0 -8.9407e-06 38.8051 2.38419e-05 7.29996 10.1395 -1.2919 2.98023e-06 18.5041 -4.76837e-05 9.71168e-06 -1.06722e-05 0 
-10.0635 22.8312 -226.921 -1.70367 0.387723 8.83945 5.52067 -5.42988 1.66295 18.5812 -0.133743 -2.36633 2.98023e-06 -48.1138 0 -0.958957 2.97118 0.0497099 -2.98023e-06 -40.7858 -4.76837e-05 1.86227 -23.7742 2.06223 -5.92555 -5.42543 1.20611 -15.2137 -0.469538 -2.49527 3.35276e-06 -46.1186 0 6.72226 8.14624 -0.956854 1.49012e-06 -41.9202 0 -1.05001 -7.86653 -0.798291 2.98023e-06 6.6358 -6.63581 -2.40769 -6.18052 2.82382 -8.9407e-06 38.8051 2.38419e-05 -31.5519 8.53774e-06 -10.6725 14.2536 1.19209e-05 -7.15256e-05 23.4475 10.7732 -23.1586 23.3221 1.78814e-05 4.76837e-05 6.61207e-06 3.30838e-06 -64.2458 22.5773 3.57628e-05 -2.98023e-06 -11.7185 0.222982 -42.4996 0.0062 0.0497 0.0339 -45 0 0 0 0.0215 0 0 -45 0 0 0.022 0 0 -45 0 0 0.017 0 0 0 0 -0.0068 0.0873 0.0207 -45 0 0 0 0.0267 0 -80 0 0 0 0.0213 0 -90 0 0 0 0.018 0 0 0 0 -0.0067 0.0922 0.0055 -45 0 0 0 0.0266 0 -80 0 0 0 0.0228 0 -90 0 0 0 0.015 0 0 0 0 -0.0067 0.0925 -0.0113 -45 0 0 0 0.0247 0 -80 0 0 0 0.0221 0 -90 0 0 0 0.018 0 0 0 0 -0.0066 0.0935 -0.0272 -45 0 0 0 0.0163 0 -80 0 0 0 0.0171 0 -90 0 0 0 0.018 0 0 0 0 -8.9407e-06 38.8051 2.38419e-05 36.7731 -2.98821e-06 8.89746 -17.0669 -1.19209e-05 7.15256e-05 -52.9631 -27.5213 -29.7322 -26.3228 2.38419e-05 -4.76837e-05 -1.68079e-05 3.41509e-06 67.0295 -25.0418 1.19209e-05 2.38419e-05 -21.658 -0.129899 13.6663 -0.0062 0.0497 0.0339 42.6507 0 0 0 0.0215 0 0 -42.6507 0 0 0.022 0 0 -42.6507 0 0 0.017 0 0 0 0 0.0068 0.0873 0.0207 42.6507 0 0 0 0.0267 0 75.8234 0 0 0 0.0213 0 85.3013 0 0 0 0.018 0 0 0 0 0.0067 0.0922 0.0055 42.6507 0 0 0 0.0266 0 75.8234 0 0 0 0.0228 0 85.3013 0 0 0 0.015 0 0 0 0 0.0067 0.0925 -0.0113 42.6507 0 0 0 0.0247 0 75.8234 0 0 0 0.0221 0 85.3013 0 0 0 0.018 0 0 0 0 0.0066 0.0935 -0.0272 42.6507 0 0 0 0.0163 0 75.8234 0 0 0 0.0171 0 85.3013 0 0 0 0.018 0 0 0 0 -8.9407e-06 38.8051 2.38419e-05 7.29996 10.1395 -1.2919 2.98023e-06 18.5041 -4.76837e-05 9.71168e-06 -1.06722e-05 0 
-7.66366 23.4678 -226.576 -1.52595 0.296499 8.31409 5.59138 -5.43722 1.72751 17.1526 1.26608 -3.27095 -4.47035e-06 -48.352 7.15256e-05 -0.910007 1.20664 0.0191642 8.9407e-06 -40.7616 -2.38419e-05 1.62824 -26.0139 1.83634 -5.9732 -5.51576 1.16825 -15.2706 0.109343 -2.84472 -1.67638e-06 -46.6204 -2.38419e-05 5.24247 7.07482 -0.647472 3.91155e-06 -42.0445 2.38419e-05 0.607356 -12.4577 0.418697 1.49012e-06 6.62669 -6.62673 -2.1986 -6.15602 2.86865 0 38.8051 0 -31.8843 1.36604e-05 -10.4161 14.0692 1.19209e-05 7.15256e-05 23.5702 10.4325 -23.0714 23.061 0 -2.38419e-05 -1.25644e-06 7.25707e-06 -60.5457 22.432 0 8.9407e-06 -12.3642 0.2222 -43.9 0.0062 0.0497 0.0339 -45 0 0 0 0.0215 0 0 -45 0 0 0.022 0 0 -45 0 0 0.017 0 0 0 0 -0.0068 0.0873 0.0207 -45 0 0 0 0.0267 0 -80 0 0 0 0.0213 0 -90 0 0 0 0.018 0 0 0 0 -0.0067 0.0922 0.0055 -45 0 0 0 0.0266 0 -80 0 0 0 0.0228 0 -90 0 0 0 0.015 0 0 0 0 -0.0067 0.0925 -0.0113 -45 0 0 0 0.0247 0 -80 0 0 0 0.0221 0 -90 0 0 0 0.018 0 0 0 0 -0.0066 0.0935 -0.0272 -45 0 0 0 0.0163 0 -80 0 0 0 0.0171 0 -90 0 0 0 0.018 0 0 0 0 0 38.8051 0 35.7717 -1.17394e-06 8.44665 -17.3169 1.19209e-05 0 -51.2767 -28.4589 -28.9077 -26.0976 -1.19209e-05 2.38419e-05 -6.15496e-06 1.36604e-05 67.3959 -24.752 -4.76837e-05 -5.96046e-05 -21.0063 -0.108014 13.6185 -0.0062 0.0497 0.0339 45 0 0 0 0.0215 0 0 -45 0 0 0.022 0 0 -45 0 0 0.017 0 0 0 0 0.0068 0.0873 0.0207 45 0 0 0 0.0267 0 80 0 0 0 0.0213 0 90 0 0 0 0.018 0 0 0 0 0.0067 0.0922 0.0055 45 0 0 0 0.0266 0 80 0 0 0 0.0228 0 90 0 0 0 0.015 0 0 0 0 0.0067 0.0925 -0.0113 45 0 0 0 0.0247 0 80 0 0 0 0.0221 0 90 0 0 0 0.018 0 0 0 0 0.0066 0.0935 -0.0272 45 0 0 0 0.0163 0 80 0 0 0 0.0171 0 90 0 0 0 0.018 0 0 0 0 0 38.8051 0 7.86982 10.3802 -1.42667 2.98023e-06 18.3605 0 8.11085e-06 -8.11085e-06 3.4151e-06 
-5.12993 23.9952 -226.302 -1.53668 0.345694 8.03764 5.604 -5.43281 1.73218 15.962 2.20477 -3.44137 2.98023e-06 -48.5214 7.15256e-05 -1.195 -0.187195 -0.00390305 -1.49012e-06 -40.7043 -2.38419e-05 1.56564 -27.8829 1.76063 -5.94985 -5.53243 1.18072 -15.2855 0.559237 -2.68185 -7.45058e-07 -47.1926 -4.76837e-05 4.871 5.83471 -0.496364 -5.97211e-06 -42.0882 -2.38419e-05 2.28385 -17.099 1.85466 5.96046e-06 6.63405 -6.63407 -2.09921 -6.21769 2.89694 0 38.8051 2.38419e-05 -32.4943 1.36604e-05 -10.6405 13.7047 -2.98023e-05 0 25.1908 11.8595 -22.8279 22.6037 1.78814e-05 0 6.51525e-06 -3.80196e-07 -64.8979 22.8106 -1.78814e-05 -2.98023e-06 -12.0183 0.167755 -43.0081 0.0062 0.0497 0.0339 -45 0 0 0 0.0215 0 0 -45 0 0 0.022 0 0 -45 0 0 0.017 0 0 0 0 -0.0068 0.0873 0.0207 -45 0 0 0 0.0267 0 -80 0 0 0 0.0213 0 -90 0 0 0 0.018 0 0 0 0 -0.0067 0.0922 0.0055 -45 0 0 0 0.0266 0 -80 0 0 0 0.0228 0 -90 0 0 0 0.015 0 0 0 0 -0.0067 0.0925 -0.0113 -45 0 0 0 0.0247 0 -80 0 0 0 0.0221 0 -90 0 0 0 0.018 0 0 0 0 -0.0066 0.0935 -0.0272 -45 0 0 0 0.0163 0 -80 0 0 0 0.0171 0 -90 0 0 0 0.018 0 0 0 0 0 38.8051 2.38419e-05 35.0546 -2.56132e-06 8.36009 -17.4045 -2.38419e-05 4.76837e-05 -49.9123 -29.2393 -28.6592 -26.4235 0 -1.19209e-05 9.82348e-06 3.41509e-06 68.1182 -24.3449 1.19209e-05 -2.38419e-05 -20.3631 -0.0917916 13.612 -0.0062 0.0497 0.0339 45 0 0 0 0.0215 0 0 -45 0 0 0.022 0 0 -45 0 0 0.017 0 0 0 0 0.0068 0.0873 0.0207 45 0 0 0 0.0267 0 80 0 0 0 0.0213 0 90 0 0 0 0.018 0 0 0 0 0.0067 0.0922 0.0055 45 0 0 0 0.0266 0 80 0 0 0 0.0228 0 90 0 0 0 0.015 0 0 0 0 0.0067 0.0925 -0.0113 45 0 0 0 0.0247 0 80 0 0 0 0.0221 0 90 0 0 0 0.018 0 0 0 0 0.0066 0.0935 -0.0272 45 0 0 0 0.0163 0 80 0 0 0 0.0171 0 90 0 0 0 0.018 0 0 0 0 0 38.8051 2.38419e-05 9.66641 10.4053 -1.76205 -5.96046e-06 18.3438 0 9.71167e-06 -1.02453e-05 -8.53774e-07 
-0.351618 24.8469 -225.95 -0.907781 0.363943 7.44182 5.49392 -5.43607 1.59385 12.7141 3.72788 -2.028 -2.98023e-06 -48.9095 2.38419e-05 -1.21514 -2.0802 -0.0441167 2.98023e-06 -40.5927 -4.76837e-05 1.23372 -30.7667 1.40729 -5.63631 -5.42083 1.36926 -15.0864 1.33296 -0.839207 -1.49012e-06 -48.6881 0 5.60456 3.96173 -0.388456 1.2666e-05 -41.1801 4.76837e-05 1.46671 -18.7003 1.21878 0 6.63297 -6.63295 -1.86558 -6.22725 2.99861 -2.98023e-06 38.8051 -7.15256e-05 -34.3697 1.28066e-05 -11.5644 13.1266 -2.38419e-05 4.76837e-05 28.2522 14.4551 -21.0603 22.1658 5.96046e-06 2.38419e-05 -1.71747e-05 -7.47052e-06 -72.3793 25.0075 -1.19209e-05 -8.9407e-06 -8.90156 -0.203749 -35.4301 0.0062 0.0497 0.0339 -45 0 0 0 0.0215 0 0 -45 0 0 0.022 0 0 -45 0 0 0.017 0 0 0 0 -0.0068 0.0873 0.0207 -45 0 0 0 0.0267 0 -80 0 0 0 0.0213 0 -90 0 0 0 0.018 0 0 0 0 -0.0067 0.0922 0.0055 -45 0 0 0 0.0266 0 -80 0 0 0 0.0228 0 -90 0 0 0 0.015 0 0 0 0 -0.0067 0.0925 -0.0113 -45 0 0 0 0.0247 0 -80 0 0 0 0.0221 0 -90 0 0 0 0.018 0 0 0 0 -0.0066 0.0935 -0.0272 -45 0 0 0 0.0163 0 -80 0 0 0 0.0171 0 -90 0 0 0 0.018 0 0 0 0 -2.98023e-06 38.8051 -7.15256e-05 34.9066 -1.17394e-06 8.7639 -17.2711 0 4.76837e-05 -49.8453 -28.6991 -28.4801 -25.7305 2.38419e-05 -3.57628e-05 -7.98966e-06 5.12265e-06 67.6985 -23.7171 -1.19209e-05 -1.19209e-05 -18.5005 -0.0220798 12.5224 -0.0062 0.0497 0.0339 45 0 0 0 0.0215 0 0 -45 0 0 0.022 0 0 -45 0 0 0.017 0 0 0 0 0.0068 0.0873 0.0207 45 0 0 0 0.0267 0 80 0 0 0 0.0213 0 90 0 0 0 0.018 0 0 0 0 0.0067 0.0922 0.0055 45 0 0 0 0.0266 0 80 0 0 0 0.0228 0 90 0 0 0 0.015 0 0 0 0 0.0067 0.0925 -0.0113 45 0 0 0 0.0247 0 80 0 0 0 0.0221 0 90 0 0 0 0.018 0 0 0 0 0.0066 0.0935 -0.0272 45 0 0 0 0.0163 0 80 0 0 0 0.0171 0 90 0 0 0 0.018 0 0 0 0 -2.98023e-06 38.8051 -7.15256e-05 9.87995 10.9593 -1.89644 0 18.2472 2.38419e-05 1.07789e-05 -1.06722e-05 -1.70755e-06 
-0.351618 24.8469 -225.95 -0.907781 0.363943 7.44182 5.49392 -5.43607 1.59385 12.7141 3.72788 -2.028 -2.98023e-06 -48.9095 2.38419e-05 -1.21514 -2.0802 -0.0441167 2.98023e-06 -40.5927 -4.76837e-05 1.23372 -30.7667 1.40729 -5.63631 -5.42083 1.36926 -15.0864 1.33296 -0.839207 -1.49012e-06 -48.6881 0 5.60456 3.96173 -0.388456 1.2666e-05 -41.1801 4.76837e-05 1.46671 -18.7003 1.21878 0 6.63297 -6.63295 -1.86558 -6.22725 2.99861 -2.98023e-06 38.8051 -7.15256e-05 -34.3697 1.28066e-05 -11.5644 13.1266 -2.38419e-05 4.76837e-05 28.2522 14.4551 -21.0603 22.1658 5.96046e-06 2.38419e-05 -1.71747e-05 -7.47052e-06 -72.3793 25.0075 -1.19209e-05 -8.9407e-06 -8.90156 -0.203749 -35.4301 0.0062 0.0497 0.0339 -45 0 0 0 0.0215 0 0 -45 0 0 0.022 0 0 -45 0 0 0.017 0 0 0 0 -0.0068 0.0873 0.0207 -45 0 0 0 0.0267 0 -80 0 0 0 0.0213 0 -90 0 0 0 0.018 0 0 0 0 -0.0067 0.0922 0.0055 -45 0 0 0 0.0266 0 -80 0 0 0 0.0228 0 -90 0 0 0 0.015 0 0 0 0 -0.0067 0.0925 -0.0113 -45 0 0 0 0.0247 0 -80 0 0 0 0.0221 0 -90 0 0 0 0.018 0 0 0 0 -0.0066 0.0935 -0.0272 -45 0 0 0 0.0163 0 -80 0 0 0 0.0171 0 -90 0 0 0 0.018 0 0 0 0 -2.98023e-06 38.8051 -7.15256e-05 34.9066 -1.17394e-06 8.7639 -17.2711 0 4.76837e-05 -49.8453 -28.6991 -28.4801 -25.7305 2.38419e-05 -3.57628e-05 -7.98966e-06 5.12265e-06 67.6985 -23.7171 -1.19209e-05 -1.19209e-05 -18.5005 -0.0220798 12.5224 -0.0062 0.0497 0.0339 45 0 0 0 0.0215 0 0 -45 0 0 0.022 0 0 -45 0 0 0.017 0 0 0 0 0.0068 0.0873 0.0207 45 0 0 0 0.0267 0 80 0 0 0 0.0213 0 90 0 0 0 0.018 0 0 0 0 0.0067 0.0922 0.0055 45 0 0 0 0.0266 0 80 0 0 0 0.0228 0 90 0 0 0 0.015 0 0 0 0 0.0067 0.0925 -0.0113 45 0 0 0 0.0247 0 80 0 0 0 0.0221 0 90 0 0 0 0.018 0 0 0 0 0.0066 0.0935 -0.0272 45 0 0 0 0.0163 0 80 0 0 0 0.0171 0 90 0 0 0 0.018 0 0 0 0 -2.98023e-06 38.8051 -7.15256e-05 9.87995 10.9593 -1.89644 0 18.2472 2.38419e-05 1.07789e-05 -1.06722e-05 -1.70755e-06 
